<?xml version="1.0" standalone="no"?>
<!DOCTYPE svg PUBLIC "-//W3C//DTD SVG 20010904//EN"
 "http://www.w3.org/TR/2001/REC-SVG-20010904/DTD/svg10.dtd">
<svg version="1.0" xmlns="http://www.w3.org/2000/svg"
 width="609.000000pt" height="609.000000pt" viewBox="0 0 609.000000 609.000000"
 preserveAspectRatio="xMidYMid meet">
<metadata>
Created by potrace 1.11, written by Peter Selinger 2001-2013
</metadata>
<g transform="translate(0.000000,609.000000) scale(0.100000,-0.100000)"
fill="#000000" stroke="none">
<path d="M1130 5734 c-7 -8 -10 -14 -6 -14 3 0 -3 -9 -14 -20 -11 -11 -20 -29
-20 -41 0 -11 -4 -18 -8 -15 -4 2 -14 -4 -21 -16 -10 -16 -10 -19 1 -12 7 4
-2 -7 -19 -25 -18 -18 -33 -41 -33 -52 0 -11 -4 -18 -8 -15 -4 2 -14 -4 -21
-16 -10 -16 -10 -19 1 -13 7 3 4 -1 -7 -10 -11 -9 -19 -23 -17 -32 2 -8 -1
-12 -7 -8 -10 5 -15 -7 -12 -27 0 -5 -3 -7 -8 -5 -5 1 -8 -1 -8 -5 1 -4 -7
-14 -18 -23 -11 -9 -13 -13 -5 -9 8 4 5 -3 -8 -15 -12 -12 -19 -27 -16 -33 4
-7 2 -8 -4 -4 -11 6 -16 -6 -13 -27 0 -4 -4 -6 -11 -5 -7 2 -12 -3 -13 -10 0
-7 -6 -17 -14 -21 -7 -5 -11 -13 -7 -19 3 -6 1 -14 -5 -18 -8 -4 -9 -3 -5 4 4
7 4 12 1 12 -3 0 -15 -20 -26 -45 -11 -24 -27 -49 -37 -54 -9 -6 -13 -11 -8
-11 6 0 1 -7 -10 -16 -10 -8 -12 -13 -4 -9 8 4 6 -1 -4 -9 -11 -9 -17 -16 -13
-16 5 0 -4 -12 -18 -27 -14 -15 -25 -33 -25 -39 0 -6 -7 -17 -15 -24 -8 -7
-13 -16 -10 -20 3 -4 -2 -10 -10 -13 -8 -4 -24 -25 -36 -49 -12 -24 -29 -49
-38 -56 -13 -11 -13 -12 -1 -7 8 4 6 -1 -5 -10 -11 -9 -20 -19 -20 -23 0 -4
-4 -6 -8 -4 -5 1 -6 -2 -3 -7 4 -5 0 -16 -8 -24 -8 -8 -12 -17 -9 -21 4 -3 1
-6 -5 -6 -7 0 -12 -7 -12 -15 0 -8 -6 -15 -14 -15 -8 0 -13 -8 -12 -17 0 -10
-4 -17 -11 -16 -7 2 -10 -4 -7 -12 4 -8 1 -15 -5 -15 -6 0 -11 -5 -11 -11 0
-6 -10 -20 -22 -31 -13 -11 -16 -16 -8 -12 12 7 13 5 3 -8 -7 -8 -9 -19 -5
-23 4 -5 1 -5 -5 -1 -7 4 -13 2 -13 -4 0 -6 -4 -8 -10 -5 -6 3 -7 -1 -4 -9 4
-9 1 -16 -6 -16 -7 0 -10 -7 -6 -15 3 -8 0 -14 -7 -12 -7 1 -11 -4 -9 -11 1
-7 -5 -15 -13 -18 -8 -3 -12 -10 -9 -15 3 -5 1 -9 -4 -9 -5 0 -17 -16 -28 -35
-10 -19 -22 -35 -26 -35 -4 0 -14 -16 -22 -35 -8 -19 -20 -35 -27 -35 -7 0 -9
-3 -6 -6 4 -4 -7 -25 -23 -47 -17 -23 -30 -47 -30 -55 0 -7 -4 -10 -10 -7 -5
3 -10 -3 -10 -14 0 -13 -5 -18 -13 -15 -8 2 -13 -4 -14 -16 -1 -11 -8 -27 -15
-35 -34 -37 -37 -44 -28 -50 6 -3 10 -3 10 2 0 4 5 0 11 -10 6 -9 14 -15 19
-12 4 3 11 -2 14 -11 4 -9 13 -14 22 -10 8 3 13 2 11 -2 -6 -9 19 -33 27 -25
3 4 6 0 6 -7 0 -7 3 -11 6 -7 4 3 15 -4 26 -16 11 -12 17 -15 13 -7 -4 8 1 6
9 -4 9 -11 16 -16 16 -10 0 5 5 1 11 -9 6 -9 14 -15 19 -12 4 3 11 -2 14 -11
4 -9 13 -14 21 -10 9 3 15 0 15 -10 0 -15 39 -35 53 -27 4 2 7 -3 7 -12 0 -9
5 -13 10 -10 6 3 10 2 10 -2 0 -13 56 -43 65 -35 5 4 5 1 1 -5 -4 -8 -1 -13 8
-13 9 0 16 -4 16 -10 0 -5 7 -10 15 -10 8 0 15 -4 15 -10 0 -5 7 -10 15 -10 8
0 15 -5 15 -12 0 -6 3 -9 6 -6 3 4 14 -2 25 -13 11 -11 24 -17 29 -14 5 3 12
0 16 -6 4 -8 3 -9 -4 -5 -7 4 -12 4 -12 1 0 -3 14 -11 30 -16 17 -6 30 -15 30
-20 0 -5 5 -9 11 -9 6 0 17 -7 26 -15 8 -8 19 -12 25 -9 6 4 8 2 4 -4 -3 -6 7
-16 24 -24 16 -7 30 -16 30 -20 0 -5 7 -8 15 -8 9 0 18 -7 21 -15 4 -8 10 -12
15 -9 5 3 12 -2 15 -10 3 -9 9 -14 14 -11 4 2 16 -5 28 -15 12 -11 28 -20 37
-20 8 0 15 -7 15 -16 0 -8 4 -13 10 -9 5 3 18 -3 29 -14 10 -10 29 -22 40 -26
12 -3 19 -11 16 -16 -3 -5 1 -6 9 -3 10 4 16 1 16 -10 0 -10 5 -13 17 -9 9 4
14 2 10 -3 -3 -6 3 -16 15 -23 16 -10 19 -10 13 1 -4 7 3 2 16 -12 13 -14 20
-19 14 -10 -5 8 2 5 16 -7 14 -13 30 -23 37 -23 6 0 14 -5 18 -12 5 -7 3 -8
-6 -3 -8 5 -11 4 -6 -3 4 -6 13 -9 21 -5 8 3 15 0 15 -5 0 -6 9 -14 20 -17 11
-4 17 -11 14 -17 -4 -7 -2 -8 4 -4 7 4 22 -2 34 -13 12 -12 28 -21 35 -21 7 0
13 -6 13 -14 0 -8 8 -13 18 -12 9 0 16 -4 15 -11 -2 -7 4 -10 12 -7 8 4 15 1
15 -5 0 -6 6 -11 14 -11 8 0 18 -5 22 -12 5 -7 3 -8 -6 -3 -8 5 -11 4 -6 -3 4
-6 13 -9 21 -5 8 3 15 0 15 -6 0 -6 7 -11 15 -11 7 0 18 -6 22 -14 4 -8 13
-16 18 -18 6 -2 9 -6 7 -11 -1 -4 1 -6 5 -5 17 4 53 -14 47 -24 -4 -6 -3 -8 3
-5 5 3 27 -8 48 -26 22 -18 36 -25 31 -17 -4 8 -1 7 7 -2 8 -10 17 -18 21 -18
4 0 14 -6 21 -12 29 -26 45 -38 52 -41 5 -1 7 -5 6 -9 -2 -4 3 -5 10 -2 7 2
22 -5 34 -16 12 -11 27 -21 34 -22 7 -2 23 -13 36 -25 12 -12 32 -24 43 -28
11 -3 20 -11 20 -17 0 -5 7 -7 16 -4 8 3 12 2 9 -4 -3 -6 -2 -10 3 -10 15 0
52 -37 44 -44 -10 -10 -9 -286 1 -286 5 0 5 -6 0 -12 -11 -18 -10 -32 2 -40 7
-5 6 -8 -1 -8 -7 0 -9 -15 -7 -37 5 -53 5 -54 0 -91 -2 -18 0 -35 4 -38 5 -3
4 -14 -1 -25 -7 -12 -7 -19 -1 -19 7 0 7 -9 1 -26 -7 -18 -7 -23 2 -18 6 4 8
3 5 -3 -11 -17 -16 -63 -7 -63 5 0 5 -13 0 -30 -5 -19 -5 -30 1 -30 6 0 7 -5
3 -12 -11 -17 -11 -58 -1 -65 4 -2 4 -10 -2 -17 -5 -6 -6 -17 -2 -25 4 -7 5
-30 1 -52 -4 -22 -3 -39 2 -39 5 0 7 -4 4 -8 -7 -11 -8 -70 -3 -105 2 -15 1
-30 -4 -33 -5 -2 -4 -16 1 -30 13 -32 12 -37 -1 -28 -8 4 -8 1 -2 -12 10 -23
10 -45 0 -61 -5 -7 -5 -13 0 -13 9 0 9 -142 -1 -158 -3 -6 -3 -13 1 -15 5 -3
7 -65 6 -139 -1 -73 -2 -140 -2 -148 0 -8 1 -182 2 -387 l2 -372 123 2 c67 1
122 -2 122 -7 0 -5 5 -5 13 0 6 5 346 9 754 9 489 0 743 3 743 10 0 7 3 7 8 0
8 -11 202 -14 202 -3 0 3 8 4 18 1 18 -4 19 11 18 394 -1 255 -4 401 -11 405
-7 5 -7 8 0 8 12 0 14 188 2 208 -5 6 -4 12 0 12 5 0 8 19 6 42 -4 50 -4 47
-1 116 2 28 -1 52 -5 52 -5 0 -5 6 0 13 11 17 10 41 -2 49 -7 5 -7 8 0 8 6 0
9 21 7 47 -3 58 -2 89 2 125 2 16 -1 28 -5 28 -5 0 -5 10 0 23 6 14 5 30 -1
41 -8 14 -7 17 1 12 8 -5 8 0 1 18 -5 14 -6 28 -1 30 6 4 7 46 1 54 -6 7 -5
29 1 43 5 9 5 19 1 23 -10 11 -8 50 3 59 7 6 7 10 0 13 -6 2 -9 21 -7 42 1 20
3 44 2 52 0 8 0 31 1 50 1 50 1 53 -4 75 -2 11 0 26 6 32 6 9 6 13 0 13 -11 0
-9 42 2 59 3 6 2 11 -2 11 -5 0 -8 20 -8 45 0 25 4 45 8 45 5 0 5 4 2 10 -12
19 -13 80 -1 80 7 0 7 3 1 8 -9 6 -10 21 -6 82 1 9 30 33 65 55 36 22 62 44
59 49 -4 5 3 7 15 4 15 -4 22 -2 22 8 0 13 13 19 33 15 5 -1 6 2 3 7 -3 5 7
15 22 23 15 8 30 18 34 24 4 5 13 10 20 10 7 1 12 6 11 13 -2 6 4 9 12 6 8 -4
15 -1 15 5 0 6 7 11 16 11 8 0 12 5 9 10 -3 6 3 10 13 10 11 0 22 7 26 15 3 8
11 14 18 13 7 -2 12 2 11 9 -2 7 4 10 12 7 8 -4 15 -2 15 2 0 5 23 22 50 38
27 16 47 33 44 38 -3 5 -2 7 3 6 15 -4 53 13 48 22 -3 5 6 12 20 16 13 3 22
11 19 16 -4 6 -1 9 7 6 7 -2 22 5 32 16 10 12 15 14 12 6 -4 -8 3 -4 16 10 13
14 20 19 14 10 -5 -8 5 -2 23 14 18 17 32 26 32 22 0 -5 9 2 21 15 11 13 17
18 14 11 -6 -11 -3 -11 13 -1 12 7 19 16 16 20 -3 6 20 21 38 23 4 1 14 10 23
21 9 11 13 13 9 5 -6 -11 -2 -10 13 2 11 10 25 18 32 18 7 0 10 4 6 9 -3 5 4
12 15 16 11 3 20 11 20 17 0 5 5 8 12 6 7 -3 23 7 36 21 14 14 18 17 11 7 -13
-18 -13 -18 8 -6 12 8 20 17 17 21 -2 4 5 10 16 14 11 3 20 10 20 15 0 5 8 7
18 3 9 -3 14 -3 10 2 -4 4 14 21 40 38 26 16 50 35 54 41 4 6 8 7 8 3 0 -5 7
-2 15 5 36 33 46 39 55 33 6 -3 10 1 10 9 0 9 7 16 15 16 8 0 15 5 15 11 0 5
4 8 9 5 5 -3 11 1 15 9 3 8 12 15 21 15 8 0 15 5 15 11 0 5 4 8 9 5 5 -3 12 1
15 10 4 9 9 14 13 11 3 -4 12 1 20 11 10 11 12 12 8 2 -4 -8 3 -4 14 10 11 14
21 21 21 16 0 -6 7 -1 16 10 8 10 13 12 9 4 -4 -8 1 -6 10 5 9 11 23 19 31 17
8 -2 13 3 12 10 -2 7 5 12 14 12 10 -1 15 2 12 7 -3 5 3 12 13 16 10 4 26 15
37 24 10 10 25 15 34 12 10 -5 13 -2 8 6 -5 8 -1 14 13 18 12 3 21 9 21 14 0
5 4 9 10 9 5 0 19 8 30 17 11 10 24 18 28 18 4 0 18 10 32 23 13 12 29 22 36
22 7 0 20 9 28 21 8 12 19 18 24 15 6 -3 13 1 16 10 3 8 10 12 16 9 5 -3 10 2
10 11 0 10 3 14 7 11 3 -4 12 1 20 11 8 9 11 11 7 3 -5 -10 -3 -12 5 -7 9 6 9
12 -3 25 -9 10 -16 21 -16 26 0 4 -10 16 -22 26 -11 11 -18 19 -14 19 3 0 -1
11 -10 25 -9 14 -21 22 -27 18 -6 -4 -8 0 -4 10 3 9 -4 27 -19 44 -13 15 -24
32 -24 36 0 5 -4 5 -10 2 -6 -3 -7 1 -4 9 3 9 2 16 -4 16 -5 0 -12 9 -15 21
-4 14 -10 18 -19 13 -9 -5 -8 -2 2 11 8 10 10 16 4 12 -11 -7 -29 19 -25 36 1
5 -3 6 -8 3 -5 -3 -15 2 -22 11 -12 14 -12 16 0 8 9 -5 7 2 -5 18 -10 15 -23
27 -27 27 -5 0 -5 4 -2 10 3 6 -1 10 -9 10 -9 0 -15 3 -15 8 3 19 -3 33 -22
51 -12 11 -18 24 -14 30 3 7 3 10 -2 9 -4 -2 -10 2 -12 7 -3 6 -14 18 -25 28
-12 10 -15 16 -8 12 6 -3 12 -1 12 4 0 6 -7 11 -16 11 -8 0 -12 5 -9 10 3 6 1
10 -5 10 -6 0 -16 13 -21 30 -6 16 -15 27 -20 24 -5 -3 -9 2 -9 10 0 8 -10 25
-22 37 -13 12 -17 18 -9 14 7 -4 3 6 -10 24 -12 17 -27 31 -31 31 -5 0 -6 5
-3 10 3 6 2 10 -2 10 -5 0 -14 14 -20 31 -8 20 -16 28 -24 23 -7 -4 -9 -3 -6
3 6 10 -26 66 -35 58 -2 -3 -5 1 -5 9 0 14 -41 86 -49 86 -3 0 -2 -5 2 -12 4
-7 3 -8 -4 -4 -6 4 -9 13 -5 21 3 8 0 15 -6 15 -6 0 -11 5 -11 11 0 17 -37 59
-45 51 -3 -4 -6 -2 -5 3 5 21 0 36 -10 30 -5 -3 -8 0 -5 7 3 7 -5 24 -16 38
-11 14 -17 19 -13 11 5 -9 3 -12 -5 -7 -6 4 -8 12 -5 18 4 6 -6 22 -22 36 -16
13 -23 21 -16 17 11 -6 12 -3 4 11 -13 24 -46 64 -36 44 4 -8 3 -11 -1 -7 -5
4 -10 14 -11 22 -2 17 -43 85 -50 85 -3 0 -2 -5 2 -12 4 -7 3 -8 -5 -4 -6 4
-9 11 -6 16 3 5 -7 21 -22 36 -16 15 -19 21 -8 13 l20 -14 -20 25 c-11 13 -26
30 -32 38 -7 7 -13 20 -13 28 0 8 -6 13 -12 11 -7 -1 -12 4 -10 12 2 8 -12 29
-29 48 -18 18 -29 33 -25 33 5 0 3 7 -4 15 -15 18 -34 20 -24 3 5 -8 2 -9 -9
-5 -10 3 -17 3 -17 -2 0 -4 -15 -16 -34 -26 -19 -11 -32 -23 -29 -29 4 -5 -1
-7 -10 -3 -10 4 -20 0 -26 -11 -6 -9 -11 -13 -11 -8 0 5 -9 -1 -20 -14 -11
-13 -20 -20 -20 -15 0 4 -9 -3 -21 -16 -11 -13 -17 -18 -14 -11 6 11 3 11 -13
1 -12 -7 -18 -17 -15 -23 4 -5 -1 -7 -10 -3 -10 3 -17 2 -17 -3 0 -5 -9 -12
-20 -15 -11 -4 -17 -11 -14 -17 5 -7 1 -9 -9 -5 -11 4 -17 1 -17 -9 0 -9 -7
-14 -17 -12 -10 2 -17 -3 -16 -9 2 -7 -2 -13 -9 -13 -22 0 -118 -73 -111 -84
4 -6 -1 -5 -10 3 -10 8 -17 9 -17 3 0 -6 -9 -14 -20 -17 -11 -4 -18 -11 -15
-16 4 -5 -1 -9 -10 -9 -9 0 -13 -4 -10 -10 3 -5 0 -7 -8 -4 -8 3 -27 -6 -42
-20 -15 -14 -32 -23 -38 -19 -5 3 -7 1 -4 -4 6 -10 -4 -18 -25 -22 -5 0 -17
-10 -28 -21 -12 -12 -25 -18 -30 -15 -6 4 -10 -1 -10 -9 0 -8 -10 -18 -22 -22
-13 -4 -25 -10 -28 -13 -3 -4 -22 -17 -42 -30 -21 -12 -38 -28 -38 -34 0 -7
-4 -6 -10 3 -8 13 -10 12 -10 -2 0 -10 -7 -18 -16 -18 -9 0 -12 -5 -8 -12 4
-6 3 -8 -4 -4 -6 3 -17 -1 -26 -10 -9 -8 -20 -12 -26 -9 -5 3 -10 -1 -10 -9 0
-9 -7 -16 -15 -16 -8 0 -15 -7 -15 -16 0 -13 -3 -14 -14 -5 -11 10 -16 8 -21
-8 -4 -13 -11 -18 -22 -14 -9 4 -14 2 -11 -3 7 -10 -11 -27 -32 -32 -8 -2 -17
-7 -20 -11 -3 -4 -13 -10 -23 -14 -11 -4 -15 -12 -11 -19 4 -7 4 -10 -1 -6 -7
7 -65 -18 -65 -28 0 -3 5 -2 12 2 7 4 8 3 4 -4 -4 -6 -13 -9 -20 -6 -7 3 -27
-9 -44 -25 -17 -17 -37 -31 -45 -31 -8 0 -18 -7 -21 -16 -3 -8 -10 -13 -15
-10 -5 3 -14 -1 -21 -9 -7 -8 -18 -15 -25 -15 -6 0 -20 -9 -30 -20 -10 -11
-23 -20 -28 -20 -5 0 -21 -12 -35 -27 -13 -16 -21 -22 -18 -16 5 9 2 11 -8 7
-9 -3 -16 -10 -16 -14 0 -4 -9 -10 -21 -13 -12 -3 -18 -10 -14 -16 3 -6 0 -9
-8 -6 -7 3 -22 -3 -32 -15 -10 -11 -24 -20 -31 -20 -7 0 -16 -5 -20 -12 -5 -7
-2 -8 7 -3 8 5 10 4 6 0 -4 -5 -15 -10 -25 -11 -9 -2 -18 -8 -20 -13 -2 -6
-10 -11 -18 -11 -7 0 -19 -9 -26 -19 -6 -10 -18 -17 -25 -14 -7 3 -13 0 -13
-6 0 -6 -7 -11 -16 -11 -8 0 -12 -4 -9 -10 3 -5 -1 -10 -9 -10 -9 0 -16 -5
-16 -11 0 -5 -4 -7 -10 -4 -5 3 -10 1 -10 -5 0 -7 -6 -8 -19 -1 -10 6 -22 7
-26 3 -5 -4 -5 -1 -1 6 4 7 1 12 -8 12 -9 0 -16 5 -16 12 0 6 -3 9 -6 5 -6 -5
-15 0 -49 31 -7 6 -18 12 -24 12 -6 0 -11 5 -11 12 0 6 -3 8 -7 5 -3 -4 -12 1
-20 11 -10 11 -12 12 -8 2 4 -8 -3 -4 -14 9 -12 13 -21 19 -21 15 0 -5 -7 -1
-15 10 -8 10 -19 15 -26 10 -7 -4 -10 -3 -5 4 3 6 -3 13 -14 17 -11 3 -20 11
-20 17 0 6 -3 8 -7 5 -3 -4 -12 1 -20 11 -10 11 -12 12 -8 2 4 -8 -3 -4 -14 9
-12 13 -21 20 -21 16 0 -3 -7 1 -16 9 -8 9 -21 16 -27 16 -7 0 -23 12 -36 25
-13 14 -29 25 -36 25 -7 0 -16 7 -19 16 -3 8 -10 13 -15 10 -5 -4 -23 5 -39
19 -16 14 -35 25 -41 25 -5 0 -15 8 -20 18 -5 10 -19 18 -32 19 -12 1 -27 7
-33 14 -8 9 -8 10 2 5 6 -4 12 -5 12 -2 0 3 -15 12 -34 20 -18 7 -43 24 -54
37 -12 12 -25 20 -28 16 -6 -6 -15 0 -53 33 -9 8 -30 22 -46 30 -17 8 -38 23
-47 34 -10 10 -18 15 -18 11 0 -5 -7 0 -16 11 -8 10 -13 12 -9 4 4 -8 -2 -6
-12 5 -10 12 -25 24 -33 27 -8 3 -19 7 -25 9 -5 2 -20 14 -33 26 -13 12 -37
28 -53 35 -16 7 -29 18 -29 24 0 6 -7 11 -15 12 -8 1 -22 3 -29 4 -8 1 -14 5
-13 10 1 5 -11 16 -28 26 -16 9 -38 25 -49 35 -11 9 -26 17 -33 17 -7 0 -13 4
-13 9 0 5 -13 14 -30 21 -16 7 -27 17 -23 23 3 5 1 7 -4 4 -6 -4 -16 0 -23 8
-7 8 -19 15 -26 15 -8 0 -14 4 -14 8 0 5 -12 15 -27 23 -16 8 -37 22 -47 32
-11 9 -26 17 -33 17 -7 0 -13 5 -13 11 0 6 -7 9 -15 5 -9 -3 -21 4 -30 18 -9
13 -29 29 -45 36 -17 7 -30 17 -30 22 0 6 -8 7 -17 4 -10 -4 -14 -4 -11 0 8 7
-31 41 -53 46 -8 2 -20 11 -28 21 -7 10 -19 16 -27 13 -7 -3 -16 0 -20 6 -5 7
-2 8 6 3 9 -5 11 -4 6 3 -4 7 -14 12 -22 12 -8 0 -14 4 -14 9 0 16 -28 20 -40
5z"/>
</g>
</svg>
